# Blender 4.4.3
# www.blender.org
mtllib Codelock.mtl
o Frame
v -0.018022 -0.247843 0.163787
v -0.018022 0.247843 0.163787
v -0.018022 -0.247843 -0.163787
v -0.018022 0.247843 -0.163787
v 0.018022 0.247843 -0.163787
v 0.018022 -0.247843 -0.163787
v 0.018022 -0.247843 0.163787
v 0.018022 0.247843 0.163787
v 0.057585 0.180455 -0.123319
v 0.057585 -0.200100 0.137475
v 0.057585 0.180455 0.123319
v -0.018022 0.000000 0.163787
v -0.018022 0.000000 -0.163787
v 0.018022 0.000000 -0.163787
v 0.018022 0.000000 0.163787
v 0.018022 0.000000 -0.148153
v 0.018022 0.000000 0.148153
v 0.057585 0.101776 -0.123319
v 0.057585 0.101776 0.123319
v 0.057585 0.073608 -0.148153
v 0.057585 0.057450 0.137475
v 0.057585 0.187460 -0.127949
v 0.057585 0.187460 0.127949
v 0.057585 0.094771 -0.127949
v 0.057585 0.094771 0.127949
v 0.063474 0.187460 -0.127949
v 0.063474 0.187460 0.127949
v 0.063474 0.094771 -0.127949
v 0.063474 0.094771 0.127949
v 0.063474 0.180455 -0.123319
v 0.063474 0.180455 0.123319
v 0.063474 0.101776 -0.123319
v 0.063474 0.101776 0.123319
v 0.056837 0.180455 -0.123319
v 0.056837 0.180455 0.123319
v 0.056837 0.101776 -0.123319
v 0.056837 0.101776 0.123319
v -0.018022 -0.247843 -0.039210
v -0.018022 0.247843 -0.039210
v 0.018022 -0.247843 -0.039210
v 0.018022 0.247843 -0.039210
v 0.018022 -0.224186 -0.035467
v 0.018022 0.224186 -0.035467
v 0.057585 -0.200100 -0.024789
v 0.057585 0.218033 -0.035467
v 0.057585 0.057450 -0.024789
v -0.018022 0.000000 -0.039210
v 0.057585 0.187460 -0.030630
v 0.057585 0.094771 -0.030630
v 0.057585 0.180455 -0.029522
v 0.057585 0.101776 -0.029522
v 0.063474 0.187460 -0.030630
v 0.063474 0.094771 -0.030630
v 0.063474 0.180455 -0.029522
v 0.063474 0.101776 -0.029522
v 0.056837 0.180455 -0.029522
v 0.056837 0.101776 -0.029522
v 0.057585 0.073608 0.148153
v 0.057585 0.073608 -0.035467
v 0.057585 -0.218033 -0.035467
v 0.044250 0.057450 0.137475
v 0.044250 -0.200100 0.137475
v 0.044250 0.057450 -0.023265
v 0.044250 -0.200100 -0.023265
v 0.057585 -0.200100 0.029850
v 0.044250 -0.200100 0.029850
v 0.044250 -0.159616 0.137475
v 0.057585 -0.159616 0.137475
v 0.057585 -0.159616 0.029850
v 0.044250 -0.159616 0.029850
v 0.057585 -0.042088 -0.148153
v 0.057585 -0.042088 -0.035467
v 0.057585 -0.164346 -0.148153
v 0.057585 -0.164343 -0.035467
v 0.057585 -0.164344 -0.047354
v 0.057585 -0.042088 -0.047354
v 0.057585 -0.164345 -0.134752
v 0.057585 -0.042088 -0.134752
v 0.057585 -0.153229 -0.047354
v 0.057585 -0.142115 -0.047354
v 0.057585 -0.131001 -0.047354
v 0.057585 -0.119887 -0.047354
v 0.057585 -0.108773 -0.047354
v 0.057585 -0.097659 -0.047354
v 0.057585 -0.086544 -0.047354
v 0.057585 -0.075430 -0.047354
v 0.057585 -0.064316 -0.047354
v 0.057585 -0.053202 -0.047354
v 0.057585 -0.153231 -0.134752
v 0.057585 -0.142117 -0.134752
v 0.057585 -0.131002 -0.134752
v 0.057585 -0.119888 -0.134752
v 0.057585 -0.108774 -0.134752
v 0.057585 -0.097659 -0.134752
v 0.057585 -0.086545 -0.134752
v 0.057585 -0.075431 -0.134752
v 0.057585 -0.064316 -0.134752
v 0.057585 -0.053202 -0.134752
v 0.049881 -0.153229 -0.047354
v 0.049881 -0.142115 -0.047354
v 0.049881 -0.131001 -0.047354
v 0.049881 -0.119887 -0.047354
v 0.049881 -0.108773 -0.047354
v 0.049881 -0.097659 -0.047354
v 0.049881 -0.086544 -0.047354
v 0.049881 -0.075430 -0.047354
v 0.049881 -0.064316 -0.047354
v 0.049881 -0.053202 -0.047354
v 0.049881 -0.153231 -0.134752
v 0.049881 -0.142117 -0.134752
v 0.049881 -0.131002 -0.134752
v 0.049881 -0.119888 -0.134752
v 0.049881 -0.108774 -0.134752
v 0.049881 -0.097659 -0.134752
v 0.049881 -0.086545 -0.134752
v 0.049881 -0.075431 -0.134752
v 0.049881 -0.064316 -0.134752
v 0.049881 -0.053202 -0.134752
v 0.018022 -0.224186 0.138442
v 0.018022 -0.209491 0.148153
v 0.018022 -0.234576 0.155019
v 0.018022 -0.223067 0.142158
v 0.018022 -0.219882 0.145308
v 0.018022 -0.215114 0.147413
v 0.018022 0.209491 0.148153
v 0.018022 0.224186 0.138442
v 0.018022 0.234576 0.155019
v 0.018022 0.215114 0.147413
v 0.018022 0.219882 0.145308
v 0.018022 0.223067 0.142158
v 0.018022 -0.209491 -0.148153
v 0.018022 -0.224186 -0.138442
v 0.018022 -0.234576 -0.155019
v 0.018022 -0.215114 -0.147413
v 0.018022 -0.219882 -0.145308
v 0.018022 -0.223067 -0.142158
v 0.018022 0.224186 -0.138442
v 0.018022 0.209491 -0.148153
v 0.018022 0.234576 -0.155019
v 0.018022 0.223067 -0.142158
v 0.018022 0.219882 -0.145308
v 0.018022 0.215114 -0.147413
v 0.057585 -0.218033 -0.138442
v 0.057585 -0.203338 -0.148153
v 0.057585 -0.216914 -0.142158
v 0.057585 -0.213729 -0.145308
v 0.057585 -0.208961 -0.147413
v 0.057585 0.203338 -0.148153
v 0.057585 0.218033 -0.138442
v 0.057585 0.207642 -0.141286
v 0.057585 0.208961 -0.147413
v 0.057585 0.213729 -0.145308
v 0.057585 0.216914 -0.142158
v 0.057585 0.218033 0.138442
v 0.057585 0.203338 0.148153
v 0.057585 0.207642 0.141286
v 0.057585 0.216914 0.142158
v 0.057585 0.213729 0.145308
v 0.057585 0.208961 0.147413
v 0.057585 -0.203338 0.148153
v 0.057585 -0.218033 0.138442
v 0.057585 -0.207116 0.141652
v 0.057585 -0.208961 0.147413
v 0.057585 -0.213729 0.145308
v 0.057585 -0.216914 0.142158
vn -1.0000 -0.0000 -0.0000
vn -0.0000 -0.0000 -1.0000
vn -0.0000 -0.0000 1.0000
vn -0.0000 -1.0000 -0.0000
vn -0.0000 1.0000 -0.0000
vn 0.1537 -0.9881 -0.0000
vn 0.1537 0.9881 -0.0000
vn 1.0000 -0.0000 -0.0000
vn 0.1135 -0.0000 0.9935
vn 0.0203 0.1303 0.9913
vn 0.0627 0.4031 0.9130
vn 0.1087 0.6990 0.7068
vn 0.1473 0.9471 0.2851
vn 0.0203 0.1303 -0.9913
vn 0.0627 0.4031 -0.9130
vn 0.1087 0.6990 -0.7068
vn 0.1473 0.9471 -0.2851
vn 0.1473 -0.9471 -0.2851
vn 0.1087 -0.6990 -0.7068
vn 0.0627 -0.4031 -0.9130
vn 0.0203 -0.1303 -0.9913
vn 0.1473 -0.9471 0.2851
vn 0.1087 -0.6990 0.7068
vn 0.0627 -0.4031 0.9130
vn 0.0203 -0.1303 0.9913
vt 0.500000 0.154924
vt 0.625000 0.154924
vt 0.625000 0.250000
vt 0.500000 0.250000
vt 0.625000 0.500000
vt 0.500000 0.500000
vt 0.605657 0.738068
vt 0.500000 0.738068
vt 0.601564 0.738068
vt 0.500000 0.750000
vt 0.625000 0.750000
vt 0.625000 1.000000
vt 0.500000 1.000000
vt 0.125000 0.595076
vt 0.375000 0.595075
vt 0.375000 0.750000
vt 0.125000 0.750000
vt 0.625000 0.595075
vt 0.875000 0.595076
vt 0.875000 0.750000
vt 0.386932 0.597932
vt 0.386932 0.519343
vt 0.386932 0.519343
vt 0.386932 0.597932
vt 0.394343 0.738068
vt 0.392629 0.738068
vt 0.500000 0.511932
vt 0.605657 0.511932
vt 0.601564 0.511932
vt 0.613068 0.597932
vt 0.613068 0.730657
vt 0.613068 0.730657
vt 0.522885 0.602469
vt 0.522885 0.530884
vt 0.387076 0.516511
vt 0.387488 0.512665
vt 0.390449 0.512124
vt 0.392629 0.511932
vt 0.407746 0.511932
vt 0.407746 0.524516
vt 0.407747 0.586503
vt 0.407747 0.597932
vt 0.386932 0.730657
vt 0.618309 0.506691
vt 0.394343 0.511932
vt 0.455145 0.511932
vt 0.381691 0.506691
vt 0.386932 0.519343
vt 0.375000 0.500000
vt 0.393196 0.647967
vt 0.393196 0.647967
vt 0.381691 0.743309
vt 0.613068 0.519343
vt 0.375000 1.000000
vt 0.375000 0.250000
vt 0.375000 0.154924
vt 0.597214 0.722649
vt 0.597214 0.601623
vt 0.607680 0.732828
vt 0.597214 0.527351
vt 0.607680 0.517172
vt 0.393196 0.729919
vt 0.493735 0.729919
vt 0.390745 0.733107
vt 0.515854 0.601623
vt 0.515854 0.722649
vt 0.500000 0.597932
vt 0.515854 0.527351
vt 0.590183 0.530884
vt 0.522885 0.719116
vt 0.522885 0.602469
vt 0.590183 0.602469
vt 0.590183 0.719116
vt 0.601564 0.738068
vt 0.375000 0.000000
vt 0.500000 0.000000
vt 0.618309 0.743309
vt 0.394343 0.511932
vt 0.875000 0.500000
vt 0.125000 0.500000
vt 0.625000 0.000000
vt 0.393196 0.606081
vt 0.493736 0.606081
vt 0.455145 0.597932
vt 0.455145 0.586503
vt 0.455145 0.524516
vt 0.412056 0.586503
vt 0.416365 0.586503
vt 0.420674 0.586503
vt 0.424982 0.586503
vt 0.429291 0.586503
vt 0.433600 0.586503
vt 0.437909 0.586503
vt 0.442218 0.586503
vt 0.446527 0.586503
vt 0.450836 0.586503
vt 0.412055 0.524516
vt 0.450836 0.524516
vt 0.446527 0.524516
vt 0.442218 0.524516
vt 0.437909 0.524516
vt 0.433600 0.524516
vt 0.429291 0.524516
vt 0.424982 0.524516
vt 0.420673 0.524516
vt 0.416364 0.524516
vt 0.386932 0.733493
vt 0.381691 0.743308
vt 0.386932 0.735897
vt 0.386932 0.737504
vt 0.386932 0.738068
vt 0.608493 0.738068
vt 0.610897 0.738068
vt 0.612504 0.738068
vt 0.613068 0.738068
vt 0.391507 0.511932
vt 0.389103 0.511932
vt 0.387496 0.511932
vt 0.386932 0.511932
vt 0.613068 0.516507
vt 0.613068 0.514102
vt 0.613068 0.512496
vt 0.613068 0.511932
vt 0.605966 0.511932
vt 0.609699 0.511932
vt 0.612192 0.511932
vt 0.613068 0.733493
vt 0.613068 0.735898
vt 0.613068 0.737504
vt 0.613068 0.738068
vt 0.390449 0.738068
vt 0.388600 0.738068
vt 0.387365 0.738068
vt 0.605966 0.738068
vt 0.613068 0.733493
vt 0.608493 0.511932
vt 0.613068 0.511932
vt 0.613068 0.516507
vt 0.386932 0.516507
vt 0.386932 0.511932
vt 0.386932 0.733493
vt 0.386932 0.738068
vt 0.391507 0.738068
vt 0.394343 0.738068
s 0
f 47/1/1 39/2/1 4/3/1 13/4/1
f 13/4/2 4/3/2 5/5/2 14/6/2
f 125/7/3 17/8/3 58/8/3 155/9/3
f 15/10/3 8/11/3 2/12/3 12/13/3
f 38/14/4 40/15/4 7/16/4 1/17/4
f 41/18/5 39/19/5 2/20/5 8/11/5
f 42/21/6 132/22/6 143/23/6 60/24/6
f 17/8/3 120/25/3 160/26/3 58/8/3
f 16/27/2 138/28/2 148/29/2 20/27/2
f 43/30/7 126/31/7 154/32/7 45/30/7
f 51/33/5 18/34/5 36/34/5 57/33/5
f 143/22/8 145/35/8 146/36/8 147/37/8 144/38/8 73/39/8 77/40/8 75/41/8 74/42/8 60/24/8
f 119/43/6 42/21/6 60/24/6 161/43/6
f 139/44/8 138/28/8 16/27/8 14/6/8 5/5/8
f 131/45/2 16/27/2 20/27/2 71/46/2 73/39/2 144/38/2
f 133/47/8 132/48/8 42/21/8 40/15/8 6/49/8
f 65/50/2 66/51/2 70/51/2 69/50/2
f 42/21/8 119/43/8 121/52/8 7/16/8 40/15/8
f 137/53/7 43/30/7 45/30/7 149/53/7
f 7/16/3 15/10/3 12/13/3 1/54/3
f 3/55/2 13/4/2 14/6/2 6/49/2
f 38/56/1 47/1/1 13/4/1 3/55/1
f 23/57/8 48/58/8 45/30/8 154/32/8 156/59/8
f 48/58/8 22/60/8 150/61/8 149/53/8 45/30/8
f 10/62/8 21/63/8 58/8/8 160/26/8 162/64/8
f 49/65/8 25/66/8 58/8/8 59/67/8
f 49/65/4 24/68/4 28/68/4 53/65/4
f 9/69/3 18/34/3 32/34/3 30/69/3
f 48/58/5 23/57/5 27/57/5 52/58/5
f 51/33/5 19/70/5 33/70/5 55/71/5
f 54/72/8 30/69/8 26/60/8 52/58/8
f 30/69/8 32/34/8 28/68/8 26/60/8
f 33/70/8 31/73/8 27/57/8 29/66/8
f 55/71/8 33/70/8 29/66/8 53/65/8
f 24/68/2 22/60/2 26/60/2 28/68/2
f 19/70/2 11/73/2 31/73/2 33/70/2
f 50/72/4 9/69/4 30/69/4 54/72/4
f 23/57/3 25/66/3 29/66/3 27/57/3
f 57/33/8 56/72/8 35/73/8 37/70/8
f 18/34/3 9/69/3 34/69/3 36/34/3
f 11/73/2 19/70/2 37/70/2 35/73/2
f 50/72/4 11/73/4 35/73/4 56/72/4
f 9/69/4 50/72/4 56/72/4 34/69/4
f 36/34/8 34/69/8 56/72/8 57/33/8
f 11/73/4 50/72/4 54/72/4 31/73/4
f 32/34/8 55/71/8 53/65/8 28/68/8
f 31/73/8 54/72/8 52/58/8 27/57/8
f 18/34/5 51/33/5 55/71/5 32/34/5
f 22/60/5 48/58/5 52/58/5 26/60/5
f 25/66/4 49/65/4 53/65/4 29/66/4
f 24/68/8 49/65/8 59/67/8 20/27/8
f 25/66/8 23/57/8 156/59/8 155/74/8 58/8/8
f 1/75/1 12/76/1 47/1/1 38/56/1
f 22/60/8 24/68/8 20/27/8 148/29/8 150/61/8
f 127/77/8 126/32/8 43/30/8 41/18/8 8/11/8
f 19/70/5 51/33/5 57/33/5 37/70/5
f 17/8/8 125/7/8 127/77/8 8/11/8 15/10/8
f 16/27/8 131/78/8 133/47/8 6/49/8 14/6/8
f 5/5/5 4/79/5 39/19/5 41/18/5
f 3/80/4 6/49/4 40/15/4 38/14/4
f 43/30/8 137/53/8 139/44/8 5/5/8 41/18/8
f 12/76/1 2/81/1 39/2/1 47/1/1
f 44/82/8 65/50/8 10/62/8 162/64/8 161/43/8 60/24/8
f 21/63/8 46/83/8 59/67/8 58/8/8
f 46/83/8 44/82/8 60/24/8 74/42/8 72/84/8 59/67/8
f 64/82/8 63/83/8 61/63/8 62/62/8 66/51/8
f 21/63/2 10/62/2 62/62/2 61/63/2
f 44/82/9 46/83/9 63/83/9 64/82/9
f 46/83/4 21/63/4 61/63/4 63/83/4
f 66/51/5 65/50/5 44/82/5 64/82/5
f 68/62/5 69/50/5 70/51/5 67/62/5
f 10/62/8 65/50/8 69/50/8 68/62/8
f 66/51/1 62/62/1 67/62/1 70/51/1
f 62/62/3 10/62/3 68/62/3 67/62/3
f 72/84/8 76/85/8 78/86/8 71/46/8 20/27/8 59/67/8
f 74/42/8 75/41/8 79/87/8 80/88/8 81/89/8 82/90/8 83/91/8 84/92/8 85/93/8 86/94/8 87/95/8 88/96/8 76/85/8 72/84/8
f 79/87/8 75/41/8 77/40/8 89/97/8
f 78/86/8 98/98/8 97/99/8 96/100/8 95/101/8 94/102/8 93/103/8 92/104/8 91/105/8 90/106/8 89/97/8 77/40/8 73/39/8 71/46/8
f 76/85/8 88/96/8 98/98/8 78/86/8
f 97/99/3 98/98/3 118/98/3 117/99/3
f 87/95/8 86/94/8 96/100/8 97/99/8
f 92/104/4 82/90/4 102/90/4 112/104/4
f 85/93/8 84/92/8 94/102/8 95/101/8
f 89/97/3 90/106/3 110/106/3 109/97/3
f 83/91/8 82/90/8 92/104/8 93/103/8
f 82/90/2 81/89/2 101/89/2 102/90/2
f 81/89/8 80/88/8 90/106/8 91/105/8
f 83/91/5 93/103/5 113/103/5 103/91/5
f 108/96/8 107/95/8 117/99/8 118/98/8
f 106/94/8 105/93/8 115/101/8 116/100/8
f 104/92/8 103/91/8 113/103/8 114/102/8
f 102/90/8 101/89/8 111/105/8 112/104/8
f 100/88/8 99/87/8 109/97/8 110/106/8
f 81/89/5 91/105/5 111/105/5 101/89/5
f 84/92/2 83/91/2 103/91/2 104/92/2
f 98/98/4 88/96/4 108/96/4 118/98/4
f 91/105/3 92/104/3 112/104/3 111/105/3
f 90/106/4 80/88/4 100/88/4 110/106/4
f 87/95/5 97/99/5 117/99/5 107/95/5
f 79/87/5 89/97/5 109/97/5 99/87/5
f 86/94/2 85/93/2 105/93/2 106/94/2
f 96/100/4 86/94/4 106/94/4 116/100/4
f 93/103/3 94/102/3 114/102/3 113/103/3
f 85/93/5 95/101/5 115/101/5 105/93/5
f 80/88/2 79/87/2 99/87/2 100/88/2
f 88/96/2 87/95/2 107/95/2 108/96/2
f 94/102/4 84/92/4 104/92/4 114/102/4
f 95/101/3 96/100/3 116/100/3 115/101/3
f 119/43/8 122/107/8 121/108/8
f 122/107/8 123/109/8 121/108/8
f 123/109/8 124/110/8 121/108/8
f 124/110/8 120/111/8 121/108/8
f 125/7/8 128/112/8 127/77/8
f 128/112/8 129/113/8 127/77/8
f 129/113/8 130/114/8 127/77/8
f 130/114/8 126/115/8 127/77/8
f 131/45/8 134/116/8 133/47/8
f 134/116/8 135/117/8 133/47/8
f 135/117/8 136/118/8 133/47/8
f 136/118/8 132/119/8 133/47/8
f 137/53/8 140/120/8 139/44/8
f 140/120/8 141/121/8 139/44/8
f 141/121/8 142/122/8 139/44/8
f 142/122/8 138/123/8 139/44/8
f 148/29/8 151/124/8 150/61/8
f 151/124/8 152/125/8 150/61/8
f 152/125/8 153/126/8 150/61/8
f 153/126/8 149/123/8 150/61/8
f 154/32/8 157/127/8 156/59/8
f 157/127/8 158/128/8 156/59/8
f 158/128/8 159/129/8 156/59/8
f 159/129/8 155/130/8 156/59/8
f 160/26/8 163/131/8 162/64/8
f 163/131/8 164/132/8 162/64/8
f 164/132/8 165/133/8 162/64/8
f 165/133/8 161/111/8 162/64/8
f 125/7/10 155/9/10 159/134/10 128/112/10
f 128/112/11 159/134/11 158/115/11 129/115/11
f 129/115/12 158/115/12 157/127/12 130/135/12
f 130/135/13 157/127/13 154/32/13 126/31/13
f 148/29/14 138/28/14 142/136/14 151/124/14
f 151/124/15 142/136/15 141/137/15 152/123/15
f 152/123/16 141/137/16 140/120/16 153/138/16
f 153/138/17 140/120/17 137/53/17 149/53/17
f 143/23/18 132/22/18 136/139/18 145/35/18
f 145/35/19 136/139/19 135/140/19 146/36/19
f 146/36/20 135/140/20 134/116/20 147/37/20
f 147/37/21 134/116/21 131/45/21 144/38/21
f 119/43/22 161/43/22 165/141/22 122/107/22
f 122/107/23 165/141/23 164/111/23 123/142/23
f 123/142/24 164/111/24 163/131/24 124/143/24
f 124/143/25 163/131/25 160/26/25 120/25/25
f 121/108/8 120/144/8 17/8/8 15/10/8 7/16/8
o Key1
v 0.042225 0.002860 0.137835
v 0.042225 0.056908 0.137835
v 0.042225 0.002860 0.085435
v 0.042225 0.056908 0.085435
v 0.073399 0.007270 0.133559
v 0.073399 0.052497 0.133559
v 0.073399 0.007270 0.089711
v 0.073399 0.052497 0.089711
vn -1.0000 -0.0000 -0.0000
vn 0.1359 -0.0000 -0.9907
vn 1.0000 -0.0000 -0.0000
vn 0.1359 -0.0000 0.9907
vn 0.1401 -0.9901 -0.0000
vn 0.1401 0.9901 -0.0000
vt 0.375000 0.000000
vt 0.625000 0.000000
vt 0.625000 0.250000
vt 0.375000 0.250000
vt 0.625000 0.500000
vt 0.375000 0.500000
vt 0.625000 0.750000
vt 0.375000 0.750000
vt 0.625000 1.000000
vt 0.375000 1.000000
vt 0.125000 0.500000
vt 0.125000 0.750000
vt 0.875000 0.500000
vt 0.875000 0.750000
s 0
f 166/145/26 167/146/26 169/147/26 168/148/26
f 168/148/27 169/147/27 173/149/27 172/150/27
f 172/150/28 173/149/28 171/151/28 170/152/28
f 170/152/29 171/151/29 167/153/29 166/154/29
f 168/155/30 172/150/30 170/152/30 166/156/30
f 173/149/31 169/157/31 167/158/31 171/151/31
o Key2
v 0.042225 0.002860 0.084692
v 0.042225 0.056908 0.084692
v 0.042225 0.002860 0.030692
v 0.042225 0.056908 0.030692
v 0.073399 0.007270 0.080286
v 0.073399 0.052497 0.080286
v 0.073399 0.007270 0.035099
v 0.073399 0.052497 0.035099
vn -1.0000 -0.0000 -0.0000
vn 0.1400 -0.0000 -0.9902
vn 1.0000 -0.0000 -0.0000
vn 0.1400 -0.0000 0.9902
vn 0.1401 -0.9901 -0.0000
vn 0.1401 0.9901 -0.0000
vt 0.375000 0.000000
vt 0.625000 0.000000
vt 0.625000 0.250000
vt 0.375000 0.250000
vt 0.625000 0.500000
vt 0.375000 0.500000
vt 0.625000 0.750000
vt 0.375000 0.750000
vt 0.625000 1.000000
vt 0.375000 1.000000
vt 0.125000 0.500000
vt 0.125000 0.750000
vt 0.875000 0.500000
vt 0.875000 0.750000
s 0
f 174/159/32 175/160/32 177/161/32 176/162/32
f 176/162/33 177/161/33 181/163/33 180/164/33
f 180/164/34 181/163/34 179/165/34 178/166/34
f 178/166/35 179/165/35 175/167/35 174/168/35
f 176/169/36 180/164/36 178/166/36 174/170/36
f 181/163/37 177/171/37 175/172/37 179/165/37
o Key3
v 0.042225 0.002860 0.029129
v 0.042225 0.056908 0.029129
v 0.042225 0.002860 -0.024871
v 0.042225 0.056908 -0.024871
v 0.073399 0.007270 0.024723
v 0.073399 0.052497 0.024723
v 0.073399 0.007270 -0.020464
v 0.073399 0.052497 -0.020464
vn -1.0000 -0.0000 -0.0000
vn 0.1400 -0.0000 -0.9902
vn 1.0000 -0.0000 -0.0000
vn 0.1400 -0.0000 0.9902
vn 0.1401 -0.9901 -0.0000
vn 0.1401 0.9901 -0.0000
vt 0.375000 0.000000
vt 0.625000 0.000000
vt 0.625000 0.250000
vt 0.375000 0.250000
vt 0.625000 0.500000
vt 0.375000 0.500000
vt 0.625000 0.750000
vt 0.375000 0.750000
vt 0.625000 1.000000
vt 0.375000 1.000000
vt 0.125000 0.500000
vt 0.125000 0.750000
vt 0.875000 0.500000
vt 0.875000 0.750000
s 0
f 182/173/38 183/174/38 185/175/38 184/176/38
f 184/176/39 185/175/39 189/177/39 188/178/39
f 188/178/40 189/177/40 187/179/40 186/180/40
f 186/180/41 187/179/41 183/181/41 182/182/41
f 184/183/42 188/178/42 186/180/42 182/184/42
f 189/177/43 185/185/43 183/186/43 187/179/43
o Key4
v 0.042225 -0.051795 0.137835
v 0.042225 0.002253 0.137835
v 0.042225 -0.051795 0.085435
v 0.042225 0.002253 0.085435
v 0.073399 -0.047384 0.133559
v 0.073399 -0.002157 0.133559
v 0.073399 -0.047384 0.089711
v 0.073399 -0.002157 0.089711
vn -1.0000 -0.0000 -0.0000
vn 0.1359 -0.0000 -0.9907
vn 1.0000 -0.0000 -0.0000
vn 0.1359 -0.0000 0.9907
vn 0.1401 -0.9901 -0.0000
vn 0.1401 0.9901 -0.0000
vt 0.375000 0.000000
vt 0.625000 0.000000
vt 0.625000 0.250000
vt 0.375000 0.250000
vt 0.625000 0.500000
vt 0.375000 0.500000
vt 0.625000 0.750000
vt 0.375000 0.750000
vt 0.625000 1.000000
vt 0.375000 1.000000
vt 0.125000 0.500000
vt 0.125000 0.750000
vt 0.875000 0.500000
vt 0.875000 0.750000
s 0
f 190/187/44 191/188/44 193/189/44 192/190/44
f 192/190/45 193/189/45 197/191/45 196/192/45
f 196/192/46 197/191/46 195/193/46 194/194/46
f 194/194/47 195/193/47 191/195/47 190/196/47
f 192/197/48 196/192/48 194/194/48 190/198/48
f 197/191/49 193/199/49 191/200/49 195/193/49
o Key5
v 0.042225 -0.051795 0.084692
v 0.042225 0.002253 0.084692
v 0.042225 -0.051795 0.030692
v 0.042225 0.002253 0.030692
v 0.073399 -0.047384 0.080286
v 0.073399 -0.002157 0.080286
v 0.073399 -0.047384 0.035099
v 0.073399 -0.002157 0.035099
vn -1.0000 -0.0000 -0.0000
vn 0.1400 -0.0000 -0.9902
vn 1.0000 -0.0000 -0.0000
vn 0.1400 -0.0000 0.9902
vn 0.1401 -0.9901 -0.0000
vn 0.1401 0.9901 -0.0000
vt 0.375000 0.000000
vt 0.625000 0.000000
vt 0.625000 0.250000
vt 0.375000 0.250000
vt 0.625000 0.500000
vt 0.375000 0.500000
vt 0.625000 0.750000
vt 0.375000 0.750000
vt 0.625000 1.000000
vt 0.375000 1.000000
vt 0.125000 0.500000
vt 0.125000 0.750000
vt 0.875000 0.500000
vt 0.875000 0.750000
s 0
f 198/201/50 199/202/50 201/203/50 200/204/50
f 200/204/51 201/203/51 205/205/51 204/206/51
f 204/206/52 205/205/52 203/207/52 202/208/52
f 202/208/53 203/207/53 199/209/53 198/210/53
f 200/211/54 204/206/54 202/208/54 198/212/54
f 205/205/55 201/213/55 199/214/55 203/207/55
o Key6
v 0.042225 -0.051795 0.029129
v 0.042225 0.002253 0.029129
v 0.042225 -0.051795 -0.024871
v 0.042225 0.002253 -0.024871
v 0.073399 -0.047384 0.024723
v 0.073399 -0.002157 0.024723
v 0.073399 -0.047384 -0.020464
v 0.073399 -0.002157 -0.020464
vn -1.0000 -0.0000 -0.0000
vn 0.1400 -0.0000 -0.9902
vn 1.0000 -0.0000 -0.0000
vn 0.1400 -0.0000 0.9902
vn 0.1401 -0.9901 -0.0000
vn 0.1401 0.9901 -0.0000
vt 0.375000 0.000000
vt 0.625000 0.000000
vt 0.625000 0.250000
vt 0.375000 0.250000
vt 0.625000 0.500000
vt 0.375000 0.500000
vt 0.625000 0.750000
vt 0.375000 0.750000
vt 0.625000 1.000000
vt 0.375000 1.000000
vt 0.125000 0.500000
vt 0.125000 0.750000
vt 0.875000 0.500000
vt 0.875000 0.750000
s 0
f 206/215/56 207/216/56 209/217/56 208/218/56
f 208/218/57 209/217/57 213/219/57 212/220/57
f 212/220/58 213/219/58 211/221/58 210/222/58
f 210/222/59 211/221/59 207/223/59 206/224/59
f 208/225/60 212/220/60 210/222/60 206/226/60
f 213/219/61 209/227/61 207/228/61 211/221/61
o Key7
v 0.042225 -0.105956 0.137835
v 0.042225 -0.051908 0.137835
v 0.042225 -0.105956 0.085435
v 0.042225 -0.051908 0.085435
v 0.073399 -0.101545 0.133559
v 0.073399 -0.056318 0.133559
v 0.073399 -0.101545 0.089711
v 0.073399 -0.056318 0.089711
vn -1.0000 -0.0000 -0.0000
vn 0.1359 -0.0000 -0.9907
vn 1.0000 -0.0000 -0.0000
vn 0.1359 -0.0000 0.9907
vn 0.1401 -0.9901 -0.0000
vn 0.1401 0.9901 -0.0000
vt 0.375000 0.000000
vt 0.625000 0.000000
vt 0.625000 0.250000
vt 0.375000 0.250000
vt 0.625000 0.500000
vt 0.375000 0.500000
vt 0.625000 0.750000
vt 0.375000 0.750000
vt 0.625000 1.000000
vt 0.375000 1.000000
vt 0.125000 0.500000
vt 0.125000 0.750000
vt 0.875000 0.500000
vt 0.875000 0.750000
s 0
f 214/229/62 215/230/62 217/231/62 216/232/62
f 216/232/63 217/231/63 221/233/63 220/234/63
f 220/234/64 221/233/64 219/235/64 218/236/64
f 218/236/65 219/235/65 215/237/65 214/238/65
f 216/239/66 220/234/66 218/236/66 214/240/66
f 221/233/67 217/241/67 215/242/67 219/235/67
o Key8
v 0.042225 -0.105956 0.084692
v 0.042225 -0.051908 0.084692
v 0.042225 -0.105956 0.030692
v 0.042225 -0.051908 0.030692
v 0.073399 -0.101545 0.080286
v 0.073399 -0.056318 0.080286
v 0.073399 -0.101545 0.035099
v 0.073399 -0.056318 0.035099
vn -1.0000 -0.0000 -0.0000
vn 0.1400 -0.0000 -0.9902
vn 1.0000 -0.0000 -0.0000
vn 0.1400 -0.0000 0.9902
vn 0.1401 -0.9901 -0.0000
vn 0.1401 0.9901 -0.0000
vt 0.375000 0.000000
vt 0.625000 0.000000
vt 0.625000 0.250000
vt 0.375000 0.250000
vt 0.625000 0.500000
vt 0.375000 0.500000
vt 0.625000 0.750000
vt 0.375000 0.750000
vt 0.625000 1.000000
vt 0.375000 1.000000
vt 0.125000 0.500000
vt 0.125000 0.750000
vt 0.875000 0.500000
vt 0.875000 0.750000
s 0
f 222/243/68 223/244/68 225/245/68 224/246/68
f 224/246/69 225/245/69 229/247/69 228/248/69
f 228/248/70 229/247/70 227/249/70 226/250/70
f 226/250/71 227/249/71 223/251/71 222/252/71
f 224/253/72 228/248/72 226/250/72 222/254/72
f 229/247/73 225/255/73 223/256/73 227/249/73
o Key9
v 0.042225 -0.105956 0.029129
v 0.042225 -0.051908 0.029129
v 0.042225 -0.105956 -0.024871
v 0.042225 -0.051908 -0.024871
v 0.073399 -0.101545 0.024723
v 0.073399 -0.056318 0.024723
v 0.073399 -0.101545 -0.020464
v 0.073399 -0.056318 -0.020464
vn -1.0000 -0.0000 -0.0000
vn 0.1400 -0.0000 -0.9902
vn 1.0000 -0.0000 -0.0000
vn 0.1400 -0.0000 0.9902
vn 0.1401 -0.9901 -0.0000
vn 0.1401 0.9901 -0.0000
vt 0.375000 0.000000
vt 0.625000 0.000000
vt 0.625000 0.250000
vt 0.375000 0.250000
vt 0.625000 0.500000
vt 0.375000 0.500000
vt 0.625000 0.750000
vt 0.375000 0.750000
vt 0.625000 1.000000
vt 0.375000 1.000000
vt 0.125000 0.500000
vt 0.125000 0.750000
vt 0.875000 0.500000
vt 0.875000 0.750000
s 0
f 230/257/74 231/258/74 233/259/74 232/260/74
f 232/260/75 233/259/75 237/261/75 236/262/75
f 236/262/76 237/261/76 235/263/76 234/264/76
f 234/264/77 235/263/77 231/265/77 230/266/77
f 232/267/78 236/262/78 234/264/78 230/268/78
f 237/261/79 233/269/79 231/270/79 235/263/79
o KeyClear
v 0.042225 -0.160260 0.137835
v 0.042225 -0.106213 0.137835
v 0.042225 -0.160260 0.085435
v 0.042225 -0.106213 0.085435
v 0.073399 -0.155850 0.133559
v 0.073399 -0.110623 0.133559
v 0.073399 -0.155850 0.089711
v 0.073399 -0.110623 0.089711
vn -1.0000 -0.0000 -0.0000
vn 0.1359 -0.0000 -0.9907
vn 1.0000 -0.0000 -0.0000
vn 0.1359 -0.0000 0.9907
vn 0.1401 -0.9901 -0.0000
vn 0.1401 0.9901 -0.0000
vt 0.375000 0.000000
vt 0.625000 0.000000
vt 0.625000 0.250000
vt 0.375000 0.250000
vt 0.625000 0.500000
vt 0.375000 0.500000
vt 0.625000 0.750000
vt 0.375000 0.750000
vt 0.625000 1.000000
vt 0.375000 1.000000
vt 0.125000 0.500000
vt 0.125000 0.750000
vt 0.875000 0.500000
vt 0.875000 0.750000
s 0
f 238/271/80 239/272/80 241/273/80 240/274/80
f 240/274/81 241/273/81 245/275/81 244/276/81
f 244/276/82 245/275/82 243/277/82 242/278/82
f 242/278/83 243/277/83 239/279/83 238/280/83
f 240/281/84 244/276/84 242/278/84 238/282/84
f 245/275/85 241/283/85 239/284/85 243/277/85
o Key0
v 0.042225 -0.160260 0.084692
v 0.042225 -0.106213 0.084692
v 0.042225 -0.160260 0.030692
v 0.042225 -0.106213 0.030692
v 0.073399 -0.155850 0.080286
v 0.073399 -0.110623 0.080286
v 0.073399 -0.155850 0.035099
v 0.073399 -0.110623 0.035099
vn -1.0000 -0.0000 -0.0000
vn 0.1400 -0.0000 -0.9902
vn 1.0000 -0.0000 -0.0000
vn 0.1400 -0.0000 0.9902
vn 0.1401 -0.9901 -0.0000
vn 0.1401 0.9901 -0.0000
vt 0.375000 0.000000
vt 0.625000 0.000000
vt 0.625000 0.250000
vt 0.375000 0.250000
vt 0.625000 0.500000
vt 0.375000 0.500000
vt 0.625000 0.750000
vt 0.375000 0.750000
vt 0.625000 1.000000
vt 0.375000 1.000000
vt 0.125000 0.500000
vt 0.125000 0.750000
vt 0.875000 0.500000
vt 0.875000 0.750000
s 0
f 246/285/86 247/286/86 249/287/86 248/288/86
f 248/288/87 249/287/87 253/289/87 252/290/87
f 252/290/88 253/289/88 251/291/88 250/292/88
f 250/292/89 251/291/89 247/293/89 246/294/89
f 248/295/90 252/290/90 250/292/90 246/296/90
f 253/289/91 249/297/91 247/298/91 251/291/91
o KeyEnter
v 0.042225 -0.199991 0.029129
v 0.042225 -0.106213 0.029129
v 0.042225 -0.199991 -0.024871
v 0.042225 -0.106213 -0.024871
v 0.073399 -0.195580 0.024723
v 0.073399 -0.110623 0.024723
v 0.073399 -0.195580 -0.020464
v 0.073399 -0.110623 -0.020464
vn -1.0000 -0.0000 -0.0000
vn 0.1400 -0.0000 -0.9902
vn 1.0000 -0.0000 -0.0000
vn 0.1400 -0.0000 0.9902
vn 0.1401 -0.9901 -0.0000
vn 0.1401 0.9901 -0.0000
vt 0.375000 0.000000
vt 0.625000 0.000000
vt 0.625000 0.250000
vt 0.375000 0.250000
vt 0.625000 0.500000
vt 0.375000 0.500000
vt 0.625000 0.750000
vt 0.375000 0.750000
vt 0.625000 1.000000
vt 0.375000 1.000000
vt 0.125000 0.500000
vt 0.125000 0.750000
vt 0.875000 0.500000
vt 0.875000 0.750000
s 0
f 254/299/92 255/300/92 257/301/92 256/302/92
f 256/302/93 257/301/93 261/303/93 260/304/93
f 260/304/94 261/303/94 259/305/94 258/306/94
f 258/306/95 259/305/95 255/307/95 254/308/95
f 256/309/96 260/304/96 258/306/96 254/310/96
f 261/303/97 257/311/97 255/312/97 259/305/97
o Cylinder
v 0.054946 0.013051 -0.062229
v 0.062067 0.013051 -0.062229
v 0.054946 0.013051 -0.083290
v 0.054946 0.004992 -0.081687
v 0.054946 -0.001840 -0.077121
v 0.054946 -0.006406 -0.070289
v 0.054946 -0.008009 -0.062229
v 0.054946 -0.006406 -0.054170
v 0.054946 -0.001840 -0.047338
v 0.054946 0.004992 -0.042772
v 0.054946 0.013051 -0.041169
v 0.054946 0.021111 -0.042772
v 0.054946 0.027943 -0.047338
v 0.054946 0.032509 -0.054170
v 0.054946 0.034112 -0.062229
v 0.054946 0.032509 -0.070289
v 0.054946 0.027943 -0.077121
v 0.054946 0.021111 -0.081687
v 0.062067 0.004992 -0.081687
v 0.062067 0.013051 -0.083290
v 0.062067 -0.001840 -0.077121
v 0.062067 -0.006406 -0.070289
v 0.062067 -0.008009 -0.062229
v 0.062067 -0.006406 -0.054170
v 0.062067 -0.001840 -0.047338
v 0.062067 0.004992 -0.042772
v 0.062067 0.013051 -0.041169
v 0.062067 0.021111 -0.042772
v 0.062067 0.027943 -0.047338
v 0.062067 0.032509 -0.054170
v 0.062067 0.034112 -0.062229
v 0.062067 0.032509 -0.070289
v 0.062067 0.027943 -0.077121
v 0.062067 0.021111 -0.081687
vn -0.0000 -0.1951 -0.9808
vn -0.0000 -0.5556 -0.8315
vn -0.0000 -0.8315 -0.5556
vn -0.0000 -0.9808 -0.1951
vn -0.0000 -0.9808 0.1951
vn -0.0000 -0.8315 0.5556
vn -0.0000 -0.5556 0.8315
vn -0.0000 -0.1951 0.9808
vn -0.0000 0.1951 0.9808
vn -0.0000 0.5556 0.8315
vn -0.0000 0.8315 0.5556
vn -0.0000 0.9808 0.1951
vn -0.0000 0.9808 -0.1951
vn -0.0000 0.8315 -0.5556
vn -0.0000 0.5556 -0.8315
vn -0.0000 0.1951 -0.9808
vn -1.0000 -0.0000 -0.0000
vn 1.0000 -0.0000 -0.0000
vt 1.000000 0.500000
vt 1.000000 1.000000
vt 0.937500 1.000000
vt 0.937500 0.500000
vt 0.875000 1.000000
vt 0.875000 0.500000
vt 0.812500 1.000000
vt 0.812500 0.500000
vt 0.750000 1.000000
vt 0.750000 0.500000
vt 0.687500 1.000000
vt 0.687500 0.500000
vt 0.625000 1.000000
vt 0.625000 0.500000
vt 0.562500 1.000000
vt 0.562500 0.500000
vt 0.500000 1.000000
vt 0.500000 0.500000
vt 0.437500 1.000000
vt 0.437500 0.500000
vt 0.375000 1.000000
vt 0.375000 0.500000
vt 0.312500 1.000000
vt 0.312500 0.500000
vt 0.250000 1.000000
vt 0.250000 0.500000
vt 0.187500 1.000000
vt 0.187500 0.500000
vt 0.125000 1.000000
vt 0.125000 0.500000
vt 0.062500 1.000000
vt 0.062500 0.500000
vt 0.000000 1.000000
vt 0.000000 0.500000
vt 0.750000 0.427752
vt 0.750000 0.490000
vt 0.841844 0.471731
vt 0.818023 0.414222
vt 0.919706 0.419706
vt 0.875690 0.375690
vt 0.971731 0.341844
vt 0.914222 0.318023
vt 0.990000 0.250000
vt 0.927752 0.250000
vt 0.971731 0.158156
vt 0.914222 0.181977
vt 0.919706 0.080294
vt 0.875690 0.124310
vt 0.841844 0.028269
vt 0.818023 0.085778
vt 0.750000 0.010000
vt 0.750000 0.072247
vt 0.658156 0.028269
vt 0.681977 0.085778
vt 0.580294 0.080294
vt 0.624310 0.124310
vt 0.528269 0.158156
vt 0.585778 0.181977
vt 0.510000 0.250000
vt 0.572247 0.250000
vt 0.528269 0.341844
vt 0.585778 0.318023
vt 0.580294 0.419706
vt 0.624310 0.375690
vt 0.658156 0.471731
vt 0.681977 0.414222
vt 0.311936 0.399528
vt 0.341844 0.471731
vt 0.250000 0.490000
vt 0.364444 0.364444
vt 0.419706 0.419706
vt 0.399528 0.311936
vt 0.471731 0.341844
vt 0.411848 0.250000
vt 0.490000 0.250000
vt 0.399528 0.188064
vt 0.471731 0.158156
vt 0.364444 0.135556
vt 0.419706 0.080294
vt 0.311936 0.100472
vt 0.341844 0.028269
vt 0.250000 0.088152
vt 0.250000 0.010000
vt 0.188064 0.100472
vt 0.158156 0.028269
vt 0.135556 0.135556
vt 0.080294 0.080294
vt 0.100472 0.188064
vt 0.028269 0.158156
vt 0.088152 0.250000
vt 0.010000 0.250000
vt 0.100472 0.311936
vt 0.028269 0.341844
vt 0.135556 0.364444
vt 0.080294 0.419706
vt 0.188064 0.399528
vt 0.158156 0.471731
vt 0.250000 0.411848
s 0
f 264/313/98 281/314/98 280/315/98 265/316/98
f 265/316/99 280/315/99 282/317/99 266/318/99
f 266/318/100 282/317/100 283/319/100 267/320/100
f 267/320/101 283/319/101 284/321/101 268/322/101
f 268/322/102 284/321/102 285/323/102 269/324/102
f 269/324/103 285/323/103 286/325/103 270/326/103
f 270/326/104 286/325/104 287/327/104 271/328/104
f 271/328/105 287/327/105 288/329/105 272/330/105
f 272/330/106 288/329/106 289/331/106 273/332/106
f 273/332/107 289/331/107 290/333/107 274/334/107
f 274/334/108 290/333/108 291/335/108 275/336/108
f 275/336/109 291/335/109 292/337/109 276/338/109
f 276/338/110 292/337/110 293/339/110 277/340/110
f 277/340/111 293/339/111 294/341/111 278/342/111
f 278/342/112 294/341/112 295/343/112 279/344/112
f 279/344/113 295/343/113 281/345/113 264/346/113
f 262/347/114 264/348/114 265/349/114
f 262/350/114 265/349/114 266/351/114
f 262/352/114 266/351/114 267/353/114
f 262/354/114 267/353/114 268/355/114
f 262/356/114 268/355/114 269/357/114
f 262/358/114 269/357/114 270/359/114
f 262/360/114 270/359/114 271/361/114
f 262/362/114 271/361/114 272/363/114
f 262/364/114 272/363/114 273/365/114
f 262/366/114 273/365/114 274/367/114
f 262/368/114 274/367/114 275/369/114
f 262/370/114 275/369/114 276/371/114
f 262/372/114 276/371/114 277/373/114
f 262/374/114 277/373/114 278/375/114
f 262/376/114 278/375/114 279/377/114
f 262/378/114 279/377/114 264/348/114
f 263/379/115 280/380/115 281/381/115
f 263/382/115 282/383/115 280/380/115
f 263/384/115 283/385/115 282/383/115
f 263/386/115 284/387/115 283/385/115
f 263/388/115 285/389/115 284/387/115
f 263/390/115 286/391/115 285/389/115
f 263/392/115 287/393/115 286/391/115
f 263/394/115 288/395/115 287/393/115
f 263/396/115 289/397/115 288/395/115
f 263/398/115 290/399/115 289/397/115
f 263/400/115 291/401/115 290/399/115
f 263/402/115 292/403/115 291/401/115
f 263/404/115 293/405/115 292/403/115
f 263/406/115 294/407/115 293/405/115
f 263/408/115 295/409/115 294/407/115
f 263/410/115 281/381/115 295/409/115
o GreenLight
v 0.060532 0.013051 -0.062229
v 0.075094 0.013051 -0.062229
v 0.060532 0.013051 -0.079465
v 0.060532 0.006456 -0.078153
v 0.060532 0.000864 -0.074417
v 0.060532 -0.002872 -0.068825
v 0.060532 -0.004184 -0.062229
v 0.060532 -0.002872 -0.055634
v 0.060532 0.000864 -0.050042
v 0.060532 0.006456 -0.046306
v 0.060532 0.013051 -0.044994
v 0.060532 0.019647 -0.046306
v 0.060532 0.025239 -0.050042
v 0.060532 0.028975 -0.055634
v 0.060532 0.030287 -0.062229
v 0.060532 0.028975 -0.068825
v 0.060532 0.025239 -0.074417
v 0.060532 0.019647 -0.078153
v 0.067818 0.007330 -0.076043
v 0.067818 0.013051 -0.077181
v 0.067818 0.002479 -0.072802
v 0.067818 -0.000762 -0.067951
v 0.067818 -0.001900 -0.062229
v 0.067818 -0.000762 -0.056508
v 0.067818 0.002479 -0.051657
v 0.067818 0.007330 -0.048416
v 0.067818 0.013051 -0.047278
v 0.067818 0.018773 -0.048416
v 0.067818 0.023624 -0.051657
v 0.067818 0.026865 -0.056508
v 0.067818 0.028003 -0.062229
v 0.067818 0.026865 -0.067951
v 0.067818 0.023624 -0.072802
v 0.067818 0.018773 -0.076043
v 0.070668 0.008434 -0.073376
v 0.070668 0.013051 -0.074295
v 0.070668 0.004520 -0.070761
v 0.070668 0.001904 -0.066847
v 0.070668 0.000986 -0.062229
v 0.070668 0.001904 -0.057612
v 0.070668 0.004520 -0.053698
v 0.070668 0.008434 -0.051082
v 0.070668 0.013051 -0.050164
v 0.070668 0.017669 -0.051082
v 0.070668 0.021583 -0.053698
v 0.070668 0.024198 -0.057612
v 0.070668 0.025117 -0.062229
v 0.070668 0.024198 -0.066847
v 0.070668 0.021583 -0.070761
v 0.070668 0.017669 -0.073376
v 0.073442 0.010152 -0.069230
v 0.073442 0.013051 -0.069807
v 0.073442 0.007694 -0.067587
v 0.073442 0.006051 -0.065129
v 0.073442 0.005474 -0.062229
v 0.073442 0.006051 -0.059330
v 0.073442 0.007694 -0.056872
v 0.073442 0.010152 -0.055229
v 0.073442 0.013051 -0.054652
v 0.073442 0.015951 -0.055229
v 0.073442 0.018409 -0.056872
v 0.073442 0.020052 -0.059330
v 0.073442 0.020629 -0.062229
v 0.073442 0.020052 -0.065129
v 0.073442 0.018409 -0.067587
v 0.073442 0.015951 -0.069230
v 0.074825 0.011469 -0.066050
v 0.074825 0.013051 -0.066365
v 0.074825 0.010127 -0.065153
v 0.074825 0.009231 -0.063812
v 0.074825 0.008916 -0.062229
v 0.074825 0.009231 -0.060647
v 0.074825 0.010127 -0.059305
v 0.074825 0.011469 -0.058409
v 0.074825 0.013051 -0.058094
v 0.074825 0.014634 -0.058409
v 0.074825 0.015975 -0.059305
v 0.074825 0.016872 -0.060647
v 0.074825 0.017187 -0.062229
v 0.074825 0.016872 -0.063812
v 0.074825 0.015975 -0.065153
v 0.074825 0.014634 -0.066050
v 0.075094 0.012156 -0.064390
v 0.075094 0.013051 -0.064568
v 0.075094 0.011398 -0.063883
v 0.075094 0.010891 -0.063124
v 0.075094 0.010713 -0.062229
v 0.075094 0.010891 -0.061334
v 0.075094 0.011398 -0.060576
v 0.075094 0.012156 -0.060069
v 0.075094 0.013051 -0.059891
v 0.075094 0.013946 -0.060069
v 0.075094 0.014705 -0.060576
v 0.075094 0.015212 -0.061334
v 0.075094 0.015390 -0.062229
v 0.075094 0.015212 -0.063124
v 0.075094 0.014705 -0.063883
v 0.075094 0.013946 -0.064390
vn 0.2940 -0.1865 -0.9375
vn 0.2940 -0.5310 -0.7947
vn 0.2940 -0.7947 -0.5310
vn 0.2940 -0.9375 -0.1865
vn 0.2940 -0.9375 0.1865
vn 0.2940 -0.7947 0.5310
vn 0.2940 -0.5310 0.7947
vn 0.2940 -0.1865 0.9375
vn 0.2940 0.1865 0.9375
vn 0.2940 0.5310 0.7947
vn 0.2940 0.7947 0.5310
vn 0.2940 0.9375 0.1865
vn 0.2940 0.9375 -0.1865
vn 0.2940 0.7947 -0.5310
vn 0.2940 0.5310 -0.7947
vn 0.2940 0.1865 -0.9375
vn -1.0000 -0.0000 -0.0000
vn 0.7046 -0.1384 -0.6960
vn 0.7046 -0.3942 -0.5900
vn 0.7046 -0.5900 -0.3942
vn 0.7046 -0.6960 -0.1384
vn 0.7046 -0.6960 0.1384
vn 0.7046 -0.5900 0.3942
vn 0.7046 -0.3942 0.5900
vn 0.7046 -0.1384 0.6960
vn 0.7046 0.1384 0.6960
vn 0.7046 0.3942 0.5900
vn 0.7046 0.5900 0.3942
vn 0.7046 0.6960 0.1384
vn 0.7046 0.6960 -0.1384
vn 0.7046 0.5900 -0.3942
vn 0.7046 0.3942 -0.5900
vn 0.7046 0.1384 -0.6960
vn 0.8460 -0.1040 -0.5229
vn 0.8460 -0.2962 -0.4433
vn 0.8460 -0.4433 -0.2962
vn 0.8460 -0.5229 -0.1040
vn 0.8460 -0.5229 0.1040
vn 0.8460 -0.4433 0.2962
vn 0.8460 -0.2962 0.4433
vn 0.8460 -0.1040 0.5229
vn 0.8460 0.1040 0.5229
vn 0.8460 0.2962 0.4433
vn 0.8460 0.4433 0.2962
vn 0.8460 0.5229 0.1040
vn 0.8460 0.5229 -0.1040
vn 0.8460 0.4433 -0.2962
vn 0.8460 0.2962 -0.4433
vn 0.8460 0.1040 -0.5229
vn 0.9253 -0.0740 -0.3719
vn 0.9253 -0.2106 -0.3153
vn 0.9253 -0.3153 -0.2106
vn 0.9253 -0.3719 -0.0740
vn 0.9253 -0.3719 0.0740
vn 0.9253 -0.3153 0.2106
vn 0.9253 -0.2106 0.3153
vn 0.9253 -0.0740 0.3719
vn 0.9253 0.0740 0.3719
vn 0.9253 0.2106 0.3153
vn 0.9253 0.3153 0.2106
vn 0.9253 0.3719 0.0740
vn 0.9253 0.3719 -0.0740
vn 0.9253 0.3153 -0.2106
vn 0.9253 0.2106 -0.3153
vn 0.9253 0.0740 -0.3719
vn 0.9886 -0.0294 -0.1478
vn 0.9886 -0.0837 -0.1253
vn 0.9886 -0.1253 -0.0837
vn 0.9886 -0.1478 -0.0294
vn 0.9886 -0.1478 0.0294
vn 0.9886 -0.1253 0.0837
vn 0.9886 -0.0837 0.1253
vn 0.9886 -0.0294 0.1478
vn 0.9886 0.0294 0.1478
vn 0.9886 0.0837 0.1253
vn 0.9886 0.1253 0.0837
vn 0.9886 0.1478 0.0294
vn 0.9886 0.1478 -0.0294
vn 0.9886 0.1253 -0.0837
vn 0.9886 0.0837 -0.1253
vn 0.9886 0.0294 -0.1478
vn 1.0000 -0.0000 -0.0000
vt 1.000000 0.500000
vt 1.000000 1.000000
vt 0.937500 1.000000
vt 0.937500 0.500000
vt 0.875000 1.000000
vt 0.875000 0.500000
vt 0.812500 1.000000
vt 0.812500 0.500000
vt 0.750000 1.000000
vt 0.750000 0.500000
vt 0.687500 1.000000
vt 0.687500 0.500000
vt 0.625000 1.000000
vt 0.625000 0.500000
vt 0.562500 1.000000
vt 0.562500 0.500000
vt 0.500000 1.000000
vt 0.500000 0.500000
vt 0.437500 1.000000
vt 0.437500 0.500000
vt 0.375000 1.000000
vt 0.375000 0.500000
vt 0.312500 1.000000
vt 0.312500 0.500000
vt 0.250000 1.000000
vt 0.250000 0.500000
vt 0.187500 1.000000
vt 0.187500 0.500000
vt 0.125000 1.000000
vt 0.125000 0.500000
vt 0.062500 1.000000
vt 0.062500 0.500000
vt 0.000000 1.000000
vt 0.000000 0.500000
vt 0.750000 0.397794
vt 0.750000 0.490000
vt 0.841844 0.471731
vt 0.806558 0.386544
vt 0.919706 0.419706
vt 0.854506 0.354506
vt 0.971731 0.341844
vt 0.886544 0.306558
vt 0.990000 0.250000
vt 0.897795 0.250000
vt 0.971731 0.158156
vt 0.886544 0.193442
vt 0.919706 0.080294
vt 0.854506 0.145494
vt 0.841844 0.028269
vt 0.806558 0.113456
vt 0.750000 0.010000
vt 0.750000 0.102206
vt 0.658156 0.028269
vt 0.693442 0.113456
vt 0.580294 0.080294
vt 0.645494 0.145494
vt 0.528269 0.158156
vt 0.613456 0.193442
vt 0.510000 0.250000
vt 0.602206 0.250000
vt 0.528269 0.341844
vt 0.613456 0.306558
vt 0.580294 0.419706
vt 0.645494 0.354506
vt 0.658156 0.471731
vt 0.693442 0.386544
vt 0.250000 0.443675
vt 0.324116 0.428933
vt 0.341844 0.471731
vt 0.250000 0.490000
vt 0.386949 0.386949
vt 0.419706 0.419706
vt 0.428933 0.324116
vt 0.471731 0.341844
vt 0.443675 0.250000
vt 0.490000 0.250000
vt 0.428933 0.175884
vt 0.471731 0.158156
vt 0.386949 0.113051
vt 0.419706 0.080294
vt 0.324116 0.071067
vt 0.341844 0.028269
vt 0.250000 0.056325
vt 0.250000 0.010000
vt 0.175884 0.071067
vt 0.158156 0.028269
vt 0.113051 0.113051
vt 0.080294 0.080294
vt 0.071067 0.175884
vt 0.028269 0.158156
vt 0.056325 0.250000
vt 0.010000 0.250000
vt 0.071067 0.324116
vt 0.028269 0.341844
vt 0.113051 0.386949
vt 0.080294 0.419706
vt 0.175884 0.428932
vt 0.158156 0.471731
vt 0.250000 0.371629
vt 0.296546 0.362371
vt 0.336005 0.336005
vt 0.362371 0.296546
vt 0.371630 0.250000
vt 0.362371 0.203454
vt 0.336005 0.163995
vt 0.296546 0.137629
vt 0.250000 0.128370
vt 0.203454 0.137629
vt 0.163995 0.163995
vt 0.137629 0.203454
vt 0.128370 0.250000
vt 0.137629 0.296546
vt 0.163995 0.336005
vt 0.203454 0.362371
vt 0.250000 0.316378
vt 0.275402 0.311326
vt 0.296937 0.296937
vt 0.311326 0.275402
vt 0.316378 0.250000
vt 0.311326 0.224598
vt 0.296937 0.203063
vt 0.275402 0.188674
vt 0.250000 0.183622
vt 0.224598 0.188674
vt 0.203063 0.203063
vt 0.188674 0.224598
vt 0.183622 0.250000
vt 0.188674 0.275402
vt 0.203063 0.296937
vt 0.224598 0.311326
vt 0.250000 0.287543
vt 0.264367 0.284686
vt 0.276547 0.276547
vt 0.284686 0.264367
vt 0.287543 0.250000
vt 0.284686 0.235633
vt 0.276547 0.223453
vt 0.264367 0.215314
vt 0.250000 0.212457
vt 0.235633 0.215314
vt 0.223453 0.223453
vt 0.215314 0.235633
vt 0.212457 0.250000
vt 0.215314 0.264367
vt 0.223453 0.276547
vt 0.235633 0.284686
vt 0.257093 0.267123
vt 0.263105 0.263105
vt 0.267123 0.257093
vt 0.268534 0.250000
vt 0.267123 0.242907
vt 0.263105 0.236895
vt 0.257093 0.232877
vt 0.250000 0.231466
vt 0.242907 0.232877
vt 0.236895 0.236895
vt 0.232877 0.242907
vt 0.231466 0.250000
vt 0.232877 0.257093
vt 0.236895 0.263105
vt 0.242907 0.267123
vt 0.250000 0.268534
s 0
f 298/411/116 315/412/116 314/413/116 299/414/116
f 299/414/117 314/413/117 316/415/117 300/416/117
f 300/416/118 316/415/118 317/417/118 301/418/118
f 301/418/119 317/417/119 318/419/119 302/420/119
f 302/420/120 318/419/120 319/421/120 303/422/120
f 303/422/121 319/421/121 320/423/121 304/424/121
f 304/424/122 320/423/122 321/425/122 305/426/122
f 305/426/123 321/425/123 322/427/123 306/428/123
f 306/428/124 322/427/124 323/429/124 307/430/124
f 307/430/125 323/429/125 324/431/125 308/432/125
f 308/432/126 324/431/126 325/433/126 309/434/126
f 309/434/127 325/433/127 326/435/127 310/436/127
f 310/436/128 326/435/128 327/437/128 311/438/128
f 311/438/129 327/437/129 328/439/129 312/440/129
f 312/440/130 328/439/130 329/441/130 313/442/130
f 313/442/131 329/441/131 315/443/131 298/444/131
f 296/445/132 298/446/132 299/447/132
f 296/448/132 299/447/132 300/449/132
f 296/450/132 300/449/132 301/451/132
f 296/452/132 301/451/132 302/453/132
f 296/454/132 302/453/132 303/455/132
f 296/456/132 303/455/132 304/457/132
f 296/458/132 304/457/132 305/459/132
f 296/460/132 305/459/132 306/461/132
f 296/462/132 306/461/132 307/463/132
f 296/464/132 307/463/132 308/465/132
f 296/466/132 308/465/132 309/467/132
f 296/468/132 309/467/132 310/469/132
f 296/470/132 310/469/132 311/471/132
f 296/472/132 311/471/132 312/473/132
f 296/474/132 312/473/132 313/475/132
f 296/476/132 313/475/132 298/446/132
f 331/477/133 330/478/133 314/479/133 315/480/133
f 330/478/134 332/481/134 316/482/134 314/479/134
f 332/481/135 333/483/135 317/484/135 316/482/135
f 333/483/136 334/485/136 318/486/136 317/484/136
f 334/485/137 335/487/137 319/488/137 318/486/137
f 335/487/138 336/489/138 320/490/138 319/488/138
f 336/489/139 337/491/139 321/492/139 320/490/139
f 337/491/140 338/493/140 322/494/140 321/492/140
f 338/493/141 339/495/141 323/496/141 322/494/141
f 339/495/142 340/497/142 324/498/142 323/496/142
f 340/497/143 341/499/143 325/500/143 324/498/143
f 341/499/144 342/501/144 326/502/144 325/500/144
f 342/501/145 343/503/145 327/504/145 326/502/145
f 343/503/146 344/505/146 328/506/146 327/504/146
f 344/505/147 345/507/147 329/508/147 328/506/147
f 345/507/148 331/477/148 315/480/148 329/508/148
f 347/509/149 346/510/149 330/478/149 331/477/149
f 346/510/150 348/511/150 332/481/150 330/478/150
f 348/511/151 349/512/151 333/483/151 332/481/151
f 349/512/152 350/513/152 334/485/152 333/483/152
f 350/513/153 351/514/153 335/487/153 334/485/153
f 351/514/154 352/515/154 336/489/154 335/487/154
f 352/515/155 353/516/155 337/491/155 336/489/155
f 353/516/156 354/517/156 338/493/156 337/491/156
f 354/517/157 355/518/157 339/495/157 338/493/157
f 355/518/158 356/519/158 340/497/158 339/495/158
f 356/519/159 357/520/159 341/499/159 340/497/159
f 357/520/160 358/521/160 342/501/160 341/499/160
f 358/521/161 359/522/161 343/503/161 342/501/161
f 359/522/162 360/523/162 344/505/162 343/503/162
f 360/523/163 361/524/163 345/507/163 344/505/163
f 361/524/164 347/509/164 331/477/164 345/507/164
f 363/525/165 362/526/165 346/510/165 347/509/165
f 362/526/166 364/527/166 348/511/166 346/510/166
f 364/527/167 365/528/167 349/512/167 348/511/167
f 365/528/168 366/529/168 350/513/168 349/512/168
f 366/529/169 367/530/169 351/514/169 350/513/169
f 367/530/170 368/531/170 352/515/170 351/514/170
f 368/531/171 369/532/171 353/516/171 352/515/171
f 369/532/172 370/533/172 354/517/172 353/516/172
f 370/533/173 371/534/173 355/518/173 354/517/173
f 371/534/174 372/535/174 356/519/174 355/518/174
f 372/535/175 373/536/175 357/520/175 356/519/175
f 373/536/176 374/537/176 358/521/176 357/520/176
f 374/537/177 375/538/177 359/522/177 358/521/177
f 375/538/178 376/539/178 360/523/178 359/522/178
f 376/539/179 377/540/179 361/524/179 360/523/179
f 377/540/180 363/525/180 347/509/180 361/524/180
f 379/541/181 378/542/181 362/526/181 363/525/181
f 378/542/182 380/543/182 364/527/182 362/526/182
f 380/543/183 381/544/183 365/528/183 364/527/183
f 381/544/184 382/545/184 366/529/184 365/528/184
f 382/545/185 383/546/185 367/530/185 366/529/185
f 383/546/186 384/547/186 368/531/186 367/530/186
f 384/547/187 385/548/187 369/532/187 368/531/187
f 385/548/188 386/549/188 370/533/188 369/532/188
f 386/549/189 387/550/189 371/534/189 370/533/189
f 387/550/190 388/551/190 372/535/190 371/534/190
f 388/551/191 389/552/191 373/536/191 372/535/191
f 389/552/192 390/553/192 374/537/192 373/536/192
f 390/553/193 391/554/193 375/538/193 374/537/193
f 391/554/194 392/555/194 376/539/194 375/538/194
f 392/555/195 393/556/195 377/540/195 376/539/195
f 393/556/196 379/541/196 363/525/196 377/540/196
f 297/557/197 378/542/197 379/541/197
f 297/558/197 380/543/197 378/542/197
f 297/559/197 381/544/197 380/543/197
f 297/560/197 382/545/197 381/544/197
f 297/561/197 383/546/197 382/545/197
f 297/562/197 384/547/197 383/546/197
f 297/563/197 385/548/197 384/547/197
f 297/564/197 386/549/197 385/548/197
f 297/565/197 387/550/197 386/549/197
f 297/566/197 388/551/197 387/550/197
f 297/567/197 389/552/197 388/551/197
f 297/568/197 390/553/197 389/552/197
f 297/569/197 391/554/197 390/553/197
f 297/570/197 392/555/197 391/554/197
f 297/571/197 393/556/197 392/555/197
f 297/572/197 379/541/197 393/556/197
o Cylinder.002
v 0.054946 0.013051 -0.116801
v 0.062067 0.013051 -0.116801
v 0.054946 0.013051 -0.137861
v 0.054946 0.004992 -0.136258
v 0.054946 -0.001840 -0.131693
v 0.054946 -0.006406 -0.124860
v 0.054946 -0.008009 -0.116801
v 0.054946 -0.006406 -0.108741
v 0.054946 -0.001840 -0.101909
v 0.054946 0.004992 -0.097343
v 0.054946 0.013051 -0.095740
v 0.054946 0.021111 -0.097343
v 0.054946 0.027943 -0.101909
v 0.054946 0.032509 -0.108741
v 0.054946 0.034112 -0.116801
v 0.054946 0.032509 -0.124860
v 0.054946 0.027943 -0.131693
v 0.054946 0.021111 -0.136258
v 0.062067 0.004992 -0.136258
v 0.062067 0.013051 -0.137861
v 0.062067 -0.001840 -0.131693
v 0.062067 -0.006406 -0.124860
v 0.062067 -0.008009 -0.116801
v 0.062067 -0.006406 -0.108741
v 0.062067 -0.001840 -0.101909
v 0.062067 0.004992 -0.097343
v 0.062067 0.013051 -0.095740
v 0.062067 0.021111 -0.097343
v 0.062067 0.027943 -0.101909
v 0.062067 0.032509 -0.108741
v 0.062067 0.034112 -0.116801
v 0.062067 0.032509 -0.124860
v 0.062067 0.027943 -0.131693
v 0.062067 0.021111 -0.136258
vn -0.0000 -0.1951 -0.9808
vn -0.0000 -0.5556 -0.8315
vn -0.0000 -0.8315 -0.5556
vn -0.0000 -0.9808 -0.1951
vn -0.0000 -0.9808 0.1951
vn -0.0000 -0.8315 0.5556
vn -0.0000 -0.5556 0.8315
vn -0.0000 -0.1951 0.9808
vn -0.0000 0.1951 0.9808
vn -0.0000 0.5556 0.8315
vn -0.0000 0.8315 0.5556
vn -0.0000 0.9808 0.1951
vn -0.0000 0.9808 -0.1951
vn -0.0000 0.8315 -0.5556
vn -0.0000 0.5556 -0.8315
vn -0.0000 0.1951 -0.9808
vn -1.0000 -0.0000 -0.0000
vn 1.0000 -0.0000 -0.0000
vt 1.000000 0.500000
vt 1.000000 1.000000
vt 0.937500 1.000000
vt 0.937500 0.500000
vt 0.875000 1.000000
vt 0.875000 0.500000
vt 0.812500 1.000000
vt 0.812500 0.500000
vt 0.750000 1.000000
vt 0.750000 0.500000
vt 0.687500 1.000000
vt 0.687500 0.500000
vt 0.625000 1.000000
vt 0.625000 0.500000
vt 0.562500 1.000000
vt 0.562500 0.500000
vt 0.500000 1.000000
vt 0.500000 0.500000
vt 0.437500 1.000000
vt 0.437500 0.500000
vt 0.375000 1.000000
vt 0.375000 0.500000
vt 0.312500 1.000000
vt 0.312500 0.500000
vt 0.250000 1.000000
vt 0.250000 0.500000
vt 0.187500 1.000000
vt 0.187500 0.500000
vt 0.125000 1.000000
vt 0.125000 0.500000
vt 0.062500 1.000000
vt 0.062500 0.500000
vt 0.000000 1.000000
vt 0.000000 0.500000
vt 0.750000 0.427752
vt 0.750000 0.490000
vt 0.841844 0.471731
vt 0.818023 0.414222
vt 0.919706 0.419706
vt 0.875690 0.375690
vt 0.971731 0.341844
vt 0.914222 0.318023
vt 0.990000 0.250000
vt 0.927752 0.250000
vt 0.971731 0.158156
vt 0.914222 0.181977
vt 0.919706 0.080294
vt 0.875690 0.124310
vt 0.841844 0.028269
vt 0.818023 0.085778
vt 0.750000 0.010000
vt 0.750000 0.072247
vt 0.658156 0.028269
vt 0.681977 0.085778
vt 0.580294 0.080294
vt 0.624310 0.124310
vt 0.528269 0.158156
vt 0.585778 0.181977
vt 0.510000 0.250000
vt 0.572247 0.250000
vt 0.528269 0.341844
vt 0.585778 0.318023
vt 0.580294 0.419706
vt 0.624310 0.375690
vt 0.658156 0.471731
vt 0.681977 0.414222
vt 0.311936 0.399528
vt 0.341844 0.471731
vt 0.250000 0.490000
vt 0.364444 0.364444
vt 0.419706 0.419706
vt 0.399528 0.311936
vt 0.471731 0.341844
vt 0.411848 0.250000
vt 0.490000 0.250000
vt 0.399528 0.188064
vt 0.471731 0.158156
vt 0.364444 0.135556
vt 0.419706 0.080294
vt 0.311936 0.100472
vt 0.341844 0.028269
vt 0.250000 0.088152
vt 0.250000 0.010000
vt 0.188064 0.100472
vt 0.158156 0.028269
vt 0.135556 0.135556
vt 0.080294 0.080294
vt 0.100472 0.188064
vt 0.028269 0.158156
vt 0.088152 0.250000
vt 0.010000 0.250000
vt 0.100472 0.311936
vt 0.028269 0.341844
vt 0.135556 0.364444
vt 0.080294 0.419706
vt 0.188064 0.399528
vt 0.158156 0.471731
vt 0.250000 0.411848
s 0
f 396/573/198 413/574/198 412/575/198 397/576/198
f 397/576/199 412/575/199 414/577/199 398/578/199
f 398/578/200 414/577/200 415/579/200 399/580/200
f 399/580/201 415/579/201 416/581/201 400/582/201
f 400/582/202 416/581/202 417/583/202 401/584/202
f 401/584/203 417/583/203 418/585/203 402/586/203
f 402/586/204 418/585/204 419/587/204 403/588/204
f 403/588/205 419/587/205 420/589/205 404/590/205
f 404/590/206 420/589/206 421/591/206 405/592/206
f 405/592/207 421/591/207 422/593/207 406/594/207
f 406/594/208 422/593/208 423/595/208 407/596/208
f 407/596/209 423/595/209 424/597/209 408/598/209
f 408/598/210 424/597/210 425/599/210 409/600/210
f 409/600/211 425/599/211 426/601/211 410/602/211
f 410/602/212 426/601/212 427/603/212 411/604/212
f 411/604/213 427/603/213 413/605/213 396/606/213
f 394/607/214 396/608/214 397/609/214
f 394/610/214 397/609/214 398/611/214
f 394/612/214 398/611/214 399/613/214
f 394/614/214 399/613/214 400/615/214
f 394/616/214 400/615/214 401/617/214
f 394/618/214 401/617/214 402/619/214
f 394/620/214 402/619/214 403/621/214
f 394/622/214 403/621/214 404/623/214
f 394/624/214 404/623/214 405/625/214
f 394/626/214 405/625/214 406/627/214
f 394/628/214 406/627/214 407/629/214
f 394/630/214 407/629/214 408/631/214
f 394/632/214 408/631/214 409/633/214
f 394/634/214 409/633/214 410/635/214
f 394/636/214 410/635/214 411/637/214
f 394/638/214 411/637/214 396/608/214
f 395/639/215 412/640/215 413/641/215
f 395/642/215 414/643/215 412/640/215
f 395/644/215 415/645/215 414/643/215
f 395/646/215 416/647/215 415/645/215
f 395/648/215 417/649/215 416/647/215
f 395/650/215 418/651/215 417/649/215
f 395/652/215 419/653/215 418/651/215
f 395/654/215 420/655/215 419/653/215
f 395/656/215 421/657/215 420/655/215
f 395/658/215 422/659/215 421/657/215
f 395/660/215 423/661/215 422/659/215
f 395/662/215 424/663/215 423/661/215
f 395/664/215 425/665/215 424/663/215
f 395/666/215 426/667/215 425/665/215
f 395/668/215 427/669/215 426/667/215
f 395/670/215 413/641/215 427/669/215
o RedLight
v 0.060532 0.013051 -0.116801
v 0.075094 0.013051 -0.116801
v 0.060532 0.013051 -0.134036
v 0.060532 0.006456 -0.132724
v 0.060532 0.000864 -0.128988
v 0.060532 -0.002872 -0.123397
v 0.060532 -0.004184 -0.116801
v 0.060532 -0.002872 -0.110205
v 0.060532 0.000864 -0.104613
v 0.060532 0.006456 -0.100877
v 0.060532 0.013051 -0.099565
v 0.060532 0.019647 -0.100877
v 0.060532 0.025239 -0.104613
v 0.060532 0.028975 -0.110205
v 0.060532 0.030287 -0.116801
v 0.060532 0.028975 -0.123397
v 0.060532 0.025239 -0.128988
v 0.060532 0.019647 -0.132724
v 0.067818 0.007330 -0.130614
v 0.067818 0.013051 -0.131752
v 0.067818 0.002479 -0.127373
v 0.067818 -0.000762 -0.122522
v 0.067818 -0.001900 -0.116801
v 0.067818 -0.000762 -0.111079
v 0.067818 0.002479 -0.106229
v 0.067818 0.007330 -0.102988
v 0.067818 0.013051 -0.101849
v 0.067818 0.018773 -0.102988
v 0.067818 0.023624 -0.106229
v 0.067818 0.026865 -0.111079
v 0.067818 0.028003 -0.116801
v 0.067818 0.026865 -0.122522
v 0.067818 0.023624 -0.127373
v 0.067818 0.018773 -0.130614
v 0.070668 0.008434 -0.127948
v 0.070668 0.013051 -0.128866
v 0.070668 0.004520 -0.125332
v 0.070668 0.001904 -0.121418
v 0.070668 0.000986 -0.116801
v 0.070668 0.001904 -0.112183
v 0.070668 0.004520 -0.108269
v 0.070668 0.008434 -0.105654
v 0.070668 0.013051 -0.104735
v 0.070668 0.017669 -0.105654
v 0.070668 0.021583 -0.108269
v 0.070668 0.024198 -0.112183
v 0.070668 0.025117 -0.116801
v 0.070668 0.024198 -0.121418
v 0.070668 0.021583 -0.125332
v 0.070668 0.017669 -0.127948
v 0.073442 0.010152 -0.123801
v 0.073442 0.013051 -0.124378
v 0.073442 0.007694 -0.122159
v 0.073442 0.006051 -0.119700
v 0.073442 0.005474 -0.116801
v 0.073442 0.006051 -0.113901
v 0.073442 0.007694 -0.111443
v 0.073442 0.010152 -0.109800
v 0.073442 0.013051 -0.109224
v 0.073442 0.015951 -0.109800
v 0.073442 0.018409 -0.111443
v 0.073442 0.020052 -0.113901
v 0.073442 0.020629 -0.116801
v 0.073442 0.020052 -0.119700
v 0.073442 0.018409 -0.122159
v 0.073442 0.015951 -0.123801
v 0.074825 0.011469 -0.120621
v 0.074825 0.013051 -0.120936
v 0.074825 0.010127 -0.119725
v 0.074825 0.009231 -0.118383
v 0.074825 0.008916 -0.116801
v 0.074825 0.009231 -0.115218
v 0.074825 0.010127 -0.113877
v 0.074825 0.011469 -0.112980
v 0.074825 0.013051 -0.112666
v 0.074825 0.014634 -0.112980
v 0.074825 0.015975 -0.113877
v 0.074825 0.016872 -0.115218
v 0.074825 0.017187 -0.116801
v 0.074825 0.016872 -0.118383
v 0.074825 0.015975 -0.119725
v 0.074825 0.014634 -0.120621
v 0.075094 0.012156 -0.118962
v 0.075094 0.013051 -0.119140
v 0.075094 0.011398 -0.118455
v 0.075094 0.010891 -0.117696
v 0.075094 0.010713 -0.116801
v 0.075094 0.010891 -0.115906
v 0.075094 0.011398 -0.115147
v 0.075094 0.012156 -0.114640
v 0.075094 0.013051 -0.114462
v 0.075094 0.013946 -0.114640
v 0.075094 0.014705 -0.115147
v 0.075094 0.015212 -0.115906
v 0.075094 0.015390 -0.116801
v 0.075094 0.015212 -0.117696
v 0.075094 0.014705 -0.118455
v 0.075094 0.013946 -0.118962
vn 0.2940 -0.1865 -0.9375
vn 0.2940 -0.5310 -0.7947
vn 0.2940 -0.7947 -0.5310
vn 0.2940 -0.9375 -0.1865
vn 0.2940 -0.9375 0.1865
vn 0.2940 -0.7947 0.5310
vn 0.2940 -0.5310 0.7947
vn 0.2940 -0.1865 0.9375
vn 0.2940 0.1865 0.9375
vn 0.2940 0.5310 0.7947
vn 0.2940 0.7947 0.5310
vn 0.2940 0.9375 0.1865
vn 0.2940 0.9375 -0.1865
vn 0.2940 0.7947 -0.5310
vn 0.2940 0.5310 -0.7947
vn 0.2940 0.1865 -0.9375
vn -1.0000 -0.0000 -0.0000
vn 0.7046 -0.1384 -0.6960
vn 0.7046 -0.3942 -0.5900
vn 0.7046 -0.5900 -0.3942
vn 0.7046 -0.6960 -0.1384
vn 0.7046 -0.6960 0.1384
vn 0.7046 -0.5900 0.3942
vn 0.7046 -0.3942 0.5900
vn 0.7046 -0.1384 0.6960
vn 0.7046 0.1384 0.6960
vn 0.7046 0.3942 0.5900
vn 0.7046 0.5900 0.3942
vn 0.7046 0.6960 0.1384
vn 0.7046 0.6960 -0.1384
vn 0.7046 0.5900 -0.3942
vn 0.7046 0.3942 -0.5900
vn 0.7046 0.1384 -0.6960
vn 0.8460 -0.1040 -0.5229
vn 0.8460 -0.2962 -0.4433
vn 0.8460 -0.4433 -0.2962
vn 0.8460 -0.5229 -0.1040
vn 0.8460 -0.5229 0.1040
vn 0.8460 -0.4433 0.2962
vn 0.8460 -0.2962 0.4433
vn 0.8460 -0.1040 0.5229
vn 0.8460 0.1040 0.5229
vn 0.8460 0.2962 0.4433
vn 0.8460 0.4433 0.2962
vn 0.8460 0.5229 0.1040
vn 0.8460 0.5229 -0.1040
vn 0.8460 0.4433 -0.2962
vn 0.8460 0.2962 -0.4433
vn 0.8460 0.1040 -0.5229
vn 0.9253 -0.0740 -0.3719
vn 0.9253 -0.2106 -0.3153
vn 0.9253 -0.3153 -0.2106
vn 0.9253 -0.3719 -0.0740
vn 0.9253 -0.3719 0.0740
vn 0.9253 -0.3153 0.2106
vn 0.9253 -0.2106 0.3153
vn 0.9253 -0.0740 0.3719
vn 0.9253 0.0740 0.3719
vn 0.9253 0.2106 0.3153
vn 0.9253 0.3153 0.2106
vn 0.9253 0.3719 0.0740
vn 0.9253 0.3719 -0.0740
vn 0.9253 0.3153 -0.2106
vn 0.9253 0.2106 -0.3153
vn 0.9253 0.0740 -0.3719
vn 0.9886 -0.0294 -0.1478
vn 0.9886 -0.0837 -0.1253
vn 0.9886 -0.1253 -0.0837
vn 0.9886 -0.1478 -0.0294
vn 0.9886 -0.1478 0.0294
vn 0.9886 -0.1253 0.0837
vn 0.9886 -0.0837 0.1253
vn 0.9886 -0.0294 0.1478
vn 0.9886 0.0294 0.1478
vn 0.9886 0.0837 0.1253
vn 0.9886 0.1253 0.0837
vn 0.9886 0.1478 0.0294
vn 0.9886 0.1478 -0.0294
vn 0.9886 0.1253 -0.0837
vn 0.9886 0.0837 -0.1253
vn 0.9886 0.0294 -0.1478
vn 1.0000 -0.0000 -0.0000
vt 1.000000 0.500000
vt 1.000000 1.000000
vt 0.937500 1.000000
vt 0.937500 0.500000
vt 0.875000 1.000000
vt 0.875000 0.500000
vt 0.812500 1.000000
vt 0.812500 0.500000
vt 0.750000 1.000000
vt 0.750000 0.500000
vt 0.687500 1.000000
vt 0.687500 0.500000
vt 0.625000 1.000000
vt 0.625000 0.500000
vt 0.562500 1.000000
vt 0.562500 0.500000
vt 0.500000 1.000000
vt 0.500000 0.500000
vt 0.437500 1.000000
vt 0.437500 0.500000
vt 0.375000 1.000000
vt 0.375000 0.500000
vt 0.312500 1.000000
vt 0.312500 0.500000
vt 0.250000 1.000000
vt 0.250000 0.500000
vt 0.187500 1.000000
vt 0.187500 0.500000
vt 0.125000 1.000000
vt 0.125000 0.500000
vt 0.062500 1.000000
vt 0.062500 0.500000
vt 0.000000 1.000000
vt 0.000000 0.500000
vt 0.750000 0.397794
vt 0.750000 0.490000
vt 0.841844 0.471731
vt 0.806558 0.386544
vt 0.919706 0.419706
vt 0.854506 0.354506
vt 0.971731 0.341844
vt 0.886544 0.306558
vt 0.990000 0.250000
vt 0.897795 0.250000
vt 0.971731 0.158156
vt 0.886544 0.193442
vt 0.919706 0.080294
vt 0.854506 0.145494
vt 0.841844 0.028269
vt 0.806558 0.113456
vt 0.750000 0.010000
vt 0.750000 0.102206
vt 0.658156 0.028269
vt 0.693442 0.113456
vt 0.580294 0.080294
vt 0.645494 0.145494
vt 0.528269 0.158156
vt 0.613456 0.193442
vt 0.510000 0.250000
vt 0.602206 0.250000
vt 0.528269 0.341844
vt 0.613456 0.306558
vt 0.580294 0.419706
vt 0.645494 0.354506
vt 0.658156 0.471731
vt 0.693442 0.386544
vt 0.250000 0.443675
vt 0.324116 0.428933
vt 0.341844 0.471731
vt 0.250000 0.490000
vt 0.386949 0.386949
vt 0.419706 0.419706
vt 0.428933 0.324116
vt 0.471731 0.341844
vt 0.443675 0.250000
vt 0.490000 0.250000
vt 0.428933 0.175884
vt 0.471731 0.158156
vt 0.386949 0.113051
vt 0.419706 0.080294
vt 0.324116 0.071067
vt 0.341844 0.028269
vt 0.250000 0.056325
vt 0.250000 0.010000
vt 0.175884 0.071067
vt 0.158156 0.028269
vt 0.113051 0.113051
vt 0.080294 0.080294
vt 0.071067 0.175884
vt 0.028269 0.158156
vt 0.056325 0.250000
vt 0.010000 0.250000
vt 0.071067 0.324116
vt 0.028269 0.341844
vt 0.113051 0.386949
vt 0.080294 0.419706
vt 0.175884 0.428932
vt 0.158156 0.471731
vt 0.250000 0.371629
vt 0.296546 0.362371
vt 0.336005 0.336005
vt 0.362371 0.296546
vt 0.371630 0.250000
vt 0.362371 0.203454
vt 0.336005 0.163995
vt 0.296546 0.137629
vt 0.250000 0.128370
vt 0.203454 0.137629
vt 0.163995 0.163995
vt 0.137629 0.203454
vt 0.128370 0.250000
vt 0.137629 0.296546
vt 0.163995 0.336005
vt 0.203454 0.362371
vt 0.250000 0.316378
vt 0.275402 0.311326
vt 0.296937 0.296937
vt 0.311326 0.275402
vt 0.316378 0.250000
vt 0.311326 0.224598
vt 0.296937 0.203063
vt 0.275402 0.188674
vt 0.250000 0.183622
vt 0.224598 0.188674
vt 0.203063 0.203063
vt 0.188674 0.224598
vt 0.183622 0.250000
vt 0.188674 0.275402
vt 0.203063 0.296937
vt 0.224598 0.311326
vt 0.250000 0.287543
vt 0.264367 0.284686
vt 0.276547 0.276547
vt 0.284686 0.264367
vt 0.287543 0.250000
vt 0.284686 0.235633
vt 0.276547 0.223453
vt 0.264367 0.215314
vt 0.250000 0.212457
vt 0.235633 0.215314
vt 0.223453 0.223453
vt 0.215314 0.235633
vt 0.212457 0.250000
vt 0.215314 0.264367
vt 0.223453 0.276547
vt 0.235633 0.284686
vt 0.257093 0.267123
vt 0.263105 0.263105
vt 0.267123 0.257093
vt 0.268534 0.250000
vt 0.267123 0.242907
vt 0.263105 0.236895
vt 0.257093 0.232877
vt 0.250000 0.231466
vt 0.242907 0.232877
vt 0.236895 0.236895
vt 0.232877 0.242907
vt 0.231466 0.250000
vt 0.232877 0.257093
vt 0.236895 0.263105
vt 0.242907 0.267123
vt 0.250000 0.268534
s 0
f 430/671/216 447/672/216 446/673/216 431/674/216
f 431/674/217 446/673/217 448/675/217 432/676/217
f 432/676/218 448/675/218 449/677/218 433/678/218
f 433/678/219 449/677/219 450/679/219 434/680/219
f 434/680/220 450/679/220 451/681/220 435/682/220
f 435/682/221 451/681/221 452/683/221 436/684/221
f 436/684/222 452/683/222 453/685/222 437/686/222
f 437/686/223 453/685/223 454/687/223 438/688/223
f 438/688/224 454/687/224 455/689/224 439/690/224
f 439/690/225 455/689/225 456/691/225 440/692/225
f 440/692/226 456/691/226 457/693/226 441/694/226
f 441/694/227 457/693/227 458/695/227 442/696/227
f 442/696/228 458/695/228 459/697/228 443/698/228
f 443/698/229 459/697/229 460/699/229 444/700/229
f 444/700/230 460/699/230 461/701/230 445/702/230
f 445/702/231 461/701/231 447/703/231 430/704/231
f 428/705/232 430/706/232 431/707/232
f 428/708/232 431/707/232 432/709/232
f 428/710/232 432/709/232 433/711/232
f 428/712/232 433/711/232 434/713/232
f 428/714/232 434/713/232 435/715/232
f 428/716/232 435/715/232 436/717/232
f 428/718/232 436/717/232 437/719/232
f 428/720/232 437/719/232 438/721/232
f 428/722/232 438/721/232 439/723/232
f 428/724/232 439/723/232 440/725/232
f 428/726/232 440/725/232 441/727/232
f 428/728/232 441/727/232 442/729/232
f 428/730/232 442/729/232 443/731/232
f 428/732/232 443/731/232 444/733/232
f 428/734/232 444/733/232 445/735/232
f 428/736/232 445/735/232 430/706/232
f 463/737/233 462/738/233 446/739/233 447/740/233
f 462/738/234 464/741/234 448/742/234 446/739/234
f 464/741/235 465/743/235 449/744/235 448/742/235
f 465/743/236 466/745/236 450/746/236 449/744/236
f 466/745/237 467/747/237 451/748/237 450/746/237
f 467/747/238 468/749/238 452/750/238 451/748/238
f 468/749/239 469/751/239 453/752/239 452/750/239
f 469/751/240 470/753/240 454/754/240 453/752/240
f 470/753/241 471/755/241 455/756/241 454/754/241
f 471/755/242 472/757/242 456/758/242 455/756/242
f 472/757/243 473/759/243 457/760/243 456/758/243
f 473/759/244 474/761/244 458/762/244 457/760/244
f 474/761/245 475/763/245 459/764/245 458/762/245
f 475/763/246 476/765/246 460/766/246 459/764/246
f 476/765/247 477/767/247 461/768/247 460/766/247
f 477/767/248 463/737/248 447/740/248 461/768/248
f 479/769/249 478/770/249 462/738/249 463/737/249
f 478/770/250 480/771/250 464/741/250 462/738/250
f 480/771/251 481/772/251 465/743/251 464/741/251
f 481/772/252 482/773/252 466/745/252 465/743/252
f 482/773/253 483/774/253 467/747/253 466/745/253
f 483/774/254 484/775/254 468/749/254 467/747/254
f 484/775/255 485/776/255 469/751/255 468/749/255
f 485/776/256 486/777/256 470/753/256 469/751/256
f 486/777/257 487/778/257 471/755/257 470/753/257
f 487/778/258 488/779/258 472/757/258 471/755/258
f 488/779/259 489/780/259 473/759/259 472/757/259
f 489/780/260 490/781/260 474/761/260 473/759/260
f 490/781/261 491/782/261 475/763/261 474/761/261
f 491/782/262 492/783/262 476/765/262 475/763/262
f 492/783/263 493/784/263 477/767/263 476/765/263
f 493/784/264 479/769/264 463/737/264 477/767/264
f 495/785/265 494/786/265 478/770/265 479/769/265
f 494/786/266 496/787/266 480/771/266 478/770/266
f 496/787/267 497/788/267 481/772/267 480/771/267
f 497/788/268 498/789/268 482/773/268 481/772/268
f 498/789/269 499/790/269 483/774/269 482/773/269
f 499/790/270 500/791/270 484/775/270 483/774/270
f 500/791/271 501/792/271 485/776/271 484/775/271
f 501/792/272 502/793/272 486/777/272 485/776/272
f 502/793/273 503/794/273 487/778/273 486/777/273
f 503/794/274 504/795/274 488/779/274 487/778/274
f 504/795/275 505/796/275 489/780/275 488/779/275
f 505/796/276 506/797/276 490/781/276 489/780/276
f 506/797/277 507/798/277 491/782/277 490/781/277
f 507/798/278 508/799/278 492/783/278 491/782/278
f 508/799/279 509/800/279 493/784/279 492/783/279
f 509/800/280 495/785/280 479/769/280 493/784/280
f 511/801/281 510/802/281 494/786/281 495/785/281
f 510/802/282 512/803/282 496/787/282 494/786/282
f 512/803/283 513/804/283 497/788/283 496/787/283
f 513/804/284 514/805/284 498/789/284 497/788/284
f 514/805/285 515/806/285 499/790/285 498/789/285
f 515/806/286 516/807/286 500/791/286 499/790/286
f 516/807/287 517/808/287 501/792/287 500/791/287
f 517/808/288 518/809/288 502/793/288 501/792/288
f 518/809/289 519/810/289 503/794/289 502/793/289
f 519/810/290 520/811/290 504/795/290 503/794/290
f 520/811/291 521/812/291 505/796/291 504/795/291
f 521/812/292 522/813/292 506/797/292 505/796/292
f 522/813/293 523/814/293 507/798/293 506/797/293
f 523/814/294 524/815/294 508/799/294 507/798/294
f 524/815/295 525/816/295 509/800/295 508/799/295
f 525/816/296 511/801/296 495/785/296 509/800/296
f 429/817/297 510/802/297 511/801/297
f 429/818/297 512/803/297 510/802/297
f 429/819/297 513/804/297 512/803/297
f 429/820/297 514/805/297 513/804/297
f 429/821/297 515/806/297 514/805/297
f 429/822/297 516/807/297 515/806/297
f 429/823/297 517/808/297 516/807/297
f 429/824/297 518/809/297 517/808/297
f 429/825/297 519/810/297 518/809/297
f 429/826/297 520/811/297 519/810/297
f 429/827/297 521/812/297 520/811/297
f 429/828/297 522/813/297 521/812/297
f 429/829/297 523/814/297 522/813/297
f 429/830/297 524/815/297 523/814/297
f 429/831/297 525/816/297 524/815/297
f 429/832/297 511/801/297 525/816/297
